<?xml version="1.0" encoding="utf-8"?>
<!-- Generator: Adobe Illustrator 16.0.0, SVG Export Plug-In . SVG Version: 6.00 Build 0)  -->
<!DOCTYPE svg PUBLIC "-//W3C//DTD SVG 1.1//EN" "http://www.w3.org/Graphics/SVG/1.1/DTD/svg11.dtd">
<svg version="1.1" id="Layer_1" xmlns="http://www.w3.org/2000/svg" xmlns:xlink="http://www.w3.org/1999/xlink" x="0px" y="0px"
	 width="253px" height="63px" viewBox="0 0 253 63" enable-background="new 0 0 253 63" xml:space="preserve">
<g>
	<g>
		<path fill="#FFFFFF" d="M31.4,62.9c17.3,0,31.4-14,31.4-31.4S48.7,0.1,31.4,0.1C14,0.1,0,14.2,0,31.5S14,62.9,31.4,62.9"/>
		<path fill="#1D1D1B" d="M62.2,31.5c0-17-13.8-30.8-30.8-30.8c-10.8,0-20.3,5.6-25.8,14h23.9c1.1,0,1.1,1.1,1.1,1.1v1.8
			c0,1.1-1.1,1.1-1.1,1.1H3.3C2.8,19.8,2.4,20.9,2,22h15.9c1.1,0,1.1,1.1,1.1,1.1V25c0,1.1-1.1,1.1-1.1,1.1H1
			c-0.2,1.1-0.3,2.2-0.4,3.3h13.1c1.1,0,1.1,1.1,1.1,1.1v1.8c0,1.1-1.1,1.1-1.1,1.1H0.6c0.1,1.1,0.2,2.2,0.4,3.3h16.1
			c1.1,0,1.1,1.1,1.1,1.1v1.8c0,1.1-1.1,1.1-1.1,1.1H2c0.4,1.1,0.8,2.2,1.3,3.3h22.1c1.1,0,1.1,1.1,1.1,1.1v1.8
			c0,1.1-1.1,1.1-1.1,1.1H5.6c5.5,8.4,15,14,25.8,14C48.4,62.3,62.2,48.5,62.2,31.5"/>
	</g>
	<g>
		<defs>
			<path id="SVGID_1_" d="M5.5,14.6h23.9c1.1,0,1.1,1.1,1.1,1.1v1.8c0,1.1-1.1,1.1-1.1,1.1H3.3C2.8,19.8,2.4,20.9,2,22h15.9
				c1.1,0,1.1,1.1,1.1,1.1V25c0,1.1-1.1,1.1-1.1,1.1H1c-0.2,1.1-0.3,2.2-0.4,3.3h13.1c1.1,0,1.1,1.1,1.1,1.1v1.8
				c0,1.1-1.1,1.1-1.1,1.1H0.6c0.1,1.1,0.2,2.2,0.4,3.3h16.1c1.1,0,1.1,1.1,1.1,1.1v1.8c0,1.1-1.1,1.1-1.1,1.1H2
				c0.4,1.1,0.8,2.2,1.3,3.3h22.1c1.1,0,1.1,1.1,1.1,1.1v1.8c0,1.1-1.1,1.1-1.1,1.1H5.6c5.5,8.4,15,14,25.8,14
				c17,0,30.8-13.8,30.8-30.8c0-17-13.8-30.8-30.8-30.8C20.5,0.7,11,6.2,5.5,14.6"/>
		</defs>
		<clipPath id="SVGID_2_">
			<use xlink:href="#SVGID_1_"  overflow="visible"/>
		</clipPath>
		<path clip-path="url(#SVGID_2_)" fill="#007A9C" d="M46.8,15.8c0,0,0-1.1,1.1-1.1h32.7v4.1H48c0,0-1.1,0-1.1-1.1V15.8z"/>
		<path clip-path="url(#SVGID_2_)" fill="#007A9C" d="M29.3,23.2c0,0,0-1.1,1.1-1.1h50.2v4.1H30.4c0,0-1.1,0-1.1-1.1V23.2z"/>
		<path clip-path="url(#SVGID_2_)" fill="#007A9C" d="M23.3,30.6c0,0,0-1.1,1.1-1.1h56.2v4.1H24.4c0,0-1.1,0-1.1-1.1V30.6z"/>
		<path clip-path="url(#SVGID_2_)" fill="#007A9C" d="M30.7,38c0,0,0-1.1,1.1-1.1h48.8V41H31.9c0,0-1.1,0-1.1-1.1V38z"/>
		<path clip-path="url(#SVGID_2_)" fill="#007A9C" d="M40,45.4c0,0,0-1.1,1.1-1.1h39.5v4.1H41.2c0,0-1.1,0-1.1-1.1V45.4z"/>
	</g>
	<g>
		<path fill="#1D1D1B" d="M247.8,46.3c-0.1,1.5,1.1,2.1,2.6,2.1c2.3,0,2.5-1.3,2.5-1.7c0-1-0.8-1.4-1.7-1.6l-1.6-0.4
			c-0.5-0.1-1-0.4-1-0.9c0-0.9,0.8-1.2,1.7-1.2c0.9,0,1.8,0.5,1.8,1.4h0.6c0-1.2-1.1-1.9-2.4-1.9c-1.9,0-2.3,1.1-2.3,1.7
			c0,0.9,0.7,1.3,1.5,1.5l1.5,0.3c0.6,0.1,1.4,0.4,1.4,1.1c0,0.9-1.1,1.2-1.7,1.2c-1.2,0-2.2-0.4-2.2-1.6H247.8z M237.4,48.3h0.6V43
			h0l2.3,5.2h0.6l2.3-5.2h0v5.2h0.6v-6h-0.9l-2.3,5.3l-2.3-5.3h-0.9V48.3z M228.9,48.3h4.6v-0.5h-4v-2.4h3.7v-0.5h-3.7v-2.2h3.9
			v-0.5h-4.6V48.3z M220,42.7h2.3v5.6h0.6v-5.6h2.3v-0.5H220V42.7z M211.5,46.3c-0.1,1.5,1.1,2.1,2.6,2.1c2.3,0,2.5-1.3,2.5-1.7
			c0-1-0.8-1.4-1.7-1.6l-1.6-0.4c-0.5-0.1-1-0.4-1-0.9c0-0.9,0.8-1.2,1.7-1.2c0.9,0,1.8,0.5,1.8,1.4h0.6c0-1.2-1.1-1.9-2.4-1.9
			c-1.9,0-2.3,1.1-2.3,1.7c0,0.9,0.7,1.3,1.5,1.5l1.5,0.3c0.6,0.1,1.4,0.4,1.4,1.1c0,0.9-1.1,1.2-1.7,1.2c-1.2,0-2.2-0.4-2.2-1.6
			H211.5z M205,48.3h0.6v-2.5l2.6-3.6h-0.7l-2.2,3.1l-2.2-3.1h-0.7l2.6,3.6V48.3z M193.9,46.3c-0.1,1.5,1.1,2.1,2.6,2.1
			c2.3,0,2.5-1.3,2.5-1.7c0-1-0.8-1.4-1.7-1.6l-1.6-0.4c-0.5-0.1-1-0.4-1-0.9c0-0.9,0.8-1.2,1.7-1.2c0.9,0,1.8,0.5,1.8,1.4h0.6
			c0-1.2-1.1-1.9-2.4-1.9c-1.9,0-2.3,1.1-2.3,1.7c0,0.9,0.7,1.3,1.5,1.5l1.5,0.3c0.6,0.1,1.4,0.4,1.4,1.1c0,0.9-1.1,1.2-1.7,1.2
			c-1.2,0-2.2-0.4-2.2-1.6H193.9z M180,48.3h0.6v-5.1h0l3.8,5.1h0.7v-6h-0.6v5.1h0l-3.8-5.1H180V48.3z M170.4,45.2
			c0-1.3,0.7-2.7,2.5-2.7c1.7,0,2.5,1.3,2.5,2.7s-0.7,2.7-2.5,2.7C171.1,47.9,170.4,46.6,170.4,45.2 M169.8,45.2
			c0,1.7,1,3.1,3.1,3.1c2.1,0,3.1-1.5,3.1-3.1c0-1.7-1-3.1-3.1-3.1C170.8,42.1,169.8,43.6,169.8,45.2 M165.1,48.3h0.6v-6h-0.6V48.3z
			 M155.8,46.3c-0.1,1.5,1.1,2.1,2.6,2.1c2.3,0,2.5-1.3,2.5-1.7c0-1-0.8-1.4-1.7-1.6l-1.6-0.4c-0.5-0.1-1-0.4-1-0.9
			c0-0.9,0.8-1.2,1.7-1.2c0.9,0,1.8,0.5,1.8,1.4h0.6c0-1.2-1.1-1.9-2.4-1.9c-1.9,0-2.3,1.1-2.3,1.7c0,0.9,0.7,1.3,1.5,1.5l1.5,0.3
			c0.6,0.1,1.4,0.4,1.4,1.1c0,0.9-1.1,1.2-1.7,1.2c-1.2,0-2.2-0.4-2.2-1.6H155.8z M151.1,48.3h0.6v-6h-0.6V48.3z M146.9,44.1
			c-0.2-1.3-1.4-2-2.7-2c-2.1,0-3.1,1.5-3.1,3.1c0,1.7,1,3.1,3.1,3.1c1.5,0,2.6-0.9,2.7-2.4h-0.6c-0.1,1.1-0.9,1.9-2.1,1.9
			c-1.7,0-2.5-1.3-2.5-2.7s0.7-2.7,2.5-2.7c1,0,1.8,0.5,2,1.5H146.9z M132.9,48.3h4.6v-0.5h-4v-2.4h3.7v-0.5h-3.7v-2.2h3.9v-0.5
			h-4.6V48.3z M123.6,48.3h2.3c2,0,3-1,3-3s-1-3-3-3h-2.3V48.3z M124.2,42.7h1.3c1.9,0,2.7,0.7,2.7,2.5s-0.8,2.5-2.7,2.5h-1.3V42.7z
			 M110.3,48.3h4.6v-0.5h-4v-2.4h3.7v-0.5H111v-2.2h3.9v-0.5h-4.6V48.3z M100.8,48.3h0.6v-5.1h0l3.8,5.1h0.7v-6h-0.6v5.1h0l-3.8-5.1
			h-0.7V48.3z M95.7,48.3h0.6v-6h-0.6V48.3z M87.7,48.3H92v-0.5h-3.7v-5.6h-0.6V48.3z M78.1,48.3h0.6v-5.1h0l3.8,5.1h0.7v-6h-0.6
			v5.1h0l-3.8-5.1h-0.7V48.3z M68.5,45.2c0-1.3,0.7-2.7,2.5-2.7c1.7,0,2.5,1.3,2.5,2.7s-0.7,2.7-2.5,2.7
			C69.2,47.9,68.5,46.6,68.5,45.2 M67.9,45.2c0,1.7,1,3.1,3.1,3.1c2.1,0,3.1-1.5,3.1-3.1c0-1.7-1-3.1-3.1-3.1
			C68.9,42.1,67.9,43.6,67.9,45.2"/>
		<path fill="#1D1D1B" d="M252.8,14.6h-3.9v8.2h-0.1c-1.2-1.9-3.7-2.7-6-2.7c-3.9,0-7.8,2.7-7.8,8.9c0,5.1,2.7,9.1,8.4,9.1
			c2.3,0,4.5-0.8,5.5-2.8h0.1v2.3h3.7V14.6z M239,29.3c0-3.1,1.3-6.2,5-6.2c3,0,4.9,2.2,4.9,6c0,3-1.5,6-5,6
			C240.5,35.1,239,32.2,239,29.3 M213.6,37.6h3.9v-10c0-2.5,1.7-4.5,4.3-4.5c2.3,0,3.4,1.2,3.5,3.8v10.7h3.9V25.9
			c0-3.8-2.5-5.8-6.3-5.8c-2.4,0-4.4,1.2-5.6,3l-0.1-0.1v-2.5h-3.7V37.6z M202.8,17.7h3.9v-3.1h-3.9V17.7z M202.8,37.6h3.9v-17h-3.9
			V37.6z M170.1,37.6h3.9V27.5c0-2.8,1.9-4.4,3.9-4.4c2.4,0,3.1,1.3,3.1,3.6v10.9h3.9v-10c0-2.9,1.1-4.5,3.8-4.5
			c3.1,0,3.3,1.9,3.3,4.6v9.9h3.9V25.9c0-4.1-2.2-5.7-6-5.7c-2.6,0-4.3,1.1-5.6,2.8c-0.8-1.9-2.8-2.8-5-2.8c-2.8,0-4.3,1.2-5.5,2.8
			h-0.1v-2.4h-3.7V37.6z M159.4,17.7h3.9v-3.1h-3.9V17.7z M159.4,37.6h3.9v-17h-3.9V37.6z M148.5,37.6h3.9v-23h-3.9V37.6z
			 M137.7,37.6h3.9v-23h-3.9V37.6z M118.9,27.6c0.1-2.5,2-4.5,4.7-4.5c2.7,0,4.4,2.1,4.5,4.5H118.9z M132.1,30.1
			c0.7-5.1-2.8-9.9-8.4-9.9c-5.3,0-8.7,4.1-8.7,9c0,5.2,3.1,8.9,8.8,8.9c3.9,0,7.2-2.1,8.1-5.8h-3.7c-0.7,1.9-2.1,2.8-4.4,2.8
			c-3.3,0-4.8-2.4-4.8-5H132.1z M100,23.4h3v10c0.1,2.8,0.8,4.3,4.9,4.3c0.9,0,1.7-0.1,2.6-0.2v-2.9c-0.6,0.1-1.1,0.1-1.7,0.1
			c-1.8,0-1.9-0.8-1.9-2.3v-9.1h3.6v-2.8h-3.6v-6H103v6h-3V23.4z M79.5,37.6h3.9v-10c0-2.5,1.7-4.5,4.3-4.5c2.3,0,3.4,1.2,3.5,3.8
			v10.7h3.9V25.9c0-3.8-2.5-5.8-6.3-5.8c-2.4,0-4.4,1.2-5.6,3l-0.1-0.1v-2.5h-3.7V37.6z M68.7,17.7h3.9v-3.1h-3.9V17.7z M68.7,37.6
			h3.9v-17h-3.9V37.6z"/>
	</g>
</g>
</svg>
